<svg width="258" height="168" viewBox="0 0 258 168" fill="none" xmlns="http://www.w3.org/2000/svg">
<path d="M11.9545 93.5909V80.5L74.1364 51.7727V67.9091L29.9545 86.8636L30.4545 86V88.0909L29.9545 87.2273L74.1364 106.182V122.318L11.9545 93.5909Z" fill="#27272A"/>
<path d="M254.966 93.5909L192.784 122.318V106.182L236.966 87.2273L236.466 88.0909V86L236.966 86.8636L192.784 67.9091V51.7727L254.966 80.5V93.5909Z" fill="#27272A"/>
<path d="M126.375 132.75C120.89 132.75 115.981 131.341 111.647 128.522C107.314 125.704 103.89 121.613 101.375 116.25C98.8595 110.886 97.6019 104.371 97.6019 96.7042C97.6019 88.9466 98.8746 82.4012 101.42 77.0679C103.996 71.7042 107.466 67.6588 111.829 64.9315C116.193 62.1739 121.056 60.7951 126.42 60.7951C130.511 60.7951 133.875 61.4921 136.511 62.886C139.147 64.2497 141.238 65.9012 142.784 67.8406C144.329 69.7497 145.526 71.5527 146.375 73.2497H147.056V38.4315H163.556V131.522H147.375V120.522H146.375C145.526 122.219 144.299 124.022 142.693 125.931C141.087 127.81 138.966 129.416 136.329 130.75C133.693 132.083 130.375 132.75 126.375 132.75ZM130.966 119.25C134.45 119.25 137.42 118.31 139.875 116.431C142.329 114.522 144.193 111.871 145.466 108.477C146.738 105.083 147.375 101.128 147.375 96.6133C147.375 92.0982 146.738 88.1739 145.466 84.8406C144.223 81.5072 142.375 78.9163 139.92 77.0679C137.496 75.2194 134.511 74.2951 130.966 74.2951C127.299 74.2951 124.238 75.2497 121.784 77.1588C119.329 79.0679 117.481 81.7042 116.238 85.0679C114.996 88.4315 114.375 92.28 114.375 96.6133C114.375 100.977 114.996 104.871 116.238 108.295C117.511 111.689 119.375 114.371 121.829 116.341C124.314 118.28 127.359 119.25 130.966 119.25Z" fill="#4F46E5"/>
</svg>
